<svg width="412" height="412" viewBox="0 0 412 412" fill="none" xmlns="http://www.w3.org/2000/svg">
<g filter="url(#filter0_d_1_2)">
<path d="M32 153.657C32 150.093 36.3086 148.309 38.8285 150.828L145.172 257.172C147.691 259.691 145.907 264 142.343 264H36C33.7909 264 32 262.209 32 260V153.657Z" fill="#FDFDFD"/>
</g>
<g filter="url(#filter1_d_1_2)">
<path d="M142.343 144C145.907 144 147.691 148.309 145.172 150.828L38.8284 257.172C36.3086 259.691 32 257.907 32 254.343L32 148C32 145.791 33.7909 144 36 144L142.343 144Z" fill="#5193FC"/>
</g>
<path d="M190.8 170.988C200.048 170.988 207.324 173.708 212.628 179.148C218 184.52 220.686 192.306 220.686 202.506V243H213.24V221.988H168.36V243H161.016V202.506C161.016 192.306 163.668 184.52 168.972 179.148C174.344 173.708 181.62 170.988 190.8 170.988ZM213.24 215.46V201.792C213.24 193.836 211.268 187.852 207.324 183.84C203.38 179.76 197.872 177.72 190.8 177.72C183.728 177.72 178.22 179.76 174.276 183.84C170.332 187.852 168.36 193.836 168.36 201.792V215.46H213.24ZM274.52 243.612C267.448 243.612 261.022 242.048 255.242 238.92C249.53 235.724 245.042 231.372 241.778 225.864C238.582 220.356 236.984 214.168 236.984 207.3C236.984 200.432 238.582 194.244 241.778 188.736C245.042 183.228 249.53 178.91 255.242 175.782C261.022 172.586 267.448 170.988 274.52 170.988C281.592 170.988 287.95 172.552 293.594 175.68C299.306 178.808 303.794 183.16 307.058 188.736C310.322 194.244 311.954 200.432 311.954 207.3C311.954 214.168 310.322 220.39 307.058 225.966C303.794 231.474 299.306 235.792 293.594 238.92C287.95 242.048 281.592 243.612 274.52 243.612ZM274.52 236.88C280.164 236.88 285.264 235.622 289.82 233.106C294.376 230.522 297.946 226.986 300.53 222.498C303.114 217.942 304.406 212.876 304.406 207.3C304.406 201.724 303.114 196.692 300.53 192.204C297.946 187.648 294.376 184.112 289.82 181.596C285.264 179.012 280.164 177.72 274.52 177.72C268.876 177.72 263.742 179.012 259.118 181.596C254.562 184.112 250.958 187.648 248.306 192.204C245.722 196.692 244.43 201.724 244.43 207.3C244.43 212.876 245.722 217.942 248.306 222.498C250.958 226.986 254.562 230.522 259.118 233.106C263.742 235.622 268.876 236.88 274.52 236.88ZM348.558 243.612C343.254 243.612 338.154 242.762 333.258 241.062C328.43 239.362 324.69 237.118 322.038 234.33L324.996 228.516C327.58 231.1 331.014 233.208 335.298 234.84C339.582 236.404 344.002 237.186 348.558 237.186C354.95 237.186 359.744 236.03 362.94 233.718C366.136 231.338 367.734 228.278 367.734 224.538C367.734 221.682 366.85 219.404 365.082 217.704C363.382 216.004 361.274 214.712 358.758 213.828C356.242 212.876 352.74 211.856 348.252 210.768C342.88 209.408 338.596 208.116 335.4 206.892C332.204 205.6 329.45 203.662 327.138 201.078C324.894 198.494 323.772 194.992 323.772 190.572C323.772 186.968 324.724 183.704 326.628 180.78C328.532 177.788 331.456 175.408 335.4 173.64C339.344 171.872 344.24 170.988 350.088 170.988C354.168 170.988 358.146 171.566 362.022 172.722C365.966 173.81 369.366 175.34 372.222 177.312L369.672 183.33C366.68 181.358 363.484 179.896 360.084 178.944C356.684 177.924 353.352 177.414 350.088 177.414C343.832 177.414 339.106 178.638 335.91 181.086C332.782 183.466 331.218 186.56 331.218 190.368C331.218 193.224 332.068 195.536 333.768 197.304C335.536 199.004 337.712 200.33 340.296 201.282C342.948 202.166 346.484 203.152 350.904 204.24C356.14 205.532 360.356 206.824 363.552 208.116C366.816 209.34 369.57 211.244 371.814 213.828C374.058 216.344 375.18 219.778 375.18 224.13C375.18 227.734 374.194 231.032 372.222 234.024C370.318 236.948 367.36 239.294 363.348 241.062C359.336 242.762 354.406 243.612 348.558 243.612Z" fill="white"/>
<defs>
<filter id="filter0_d_1_2" x="30" y="145.649" width="122.351" height="122.351" filterUnits="userSpaceOnUse" color-interpolation-filters="sRGB">
<feFlood flood-opacity="0" result="BackgroundImageFix"/>
<feColorMatrix in="SourceAlpha" type="matrix" values="0 0 0 0 0 0 0 0 0 0 0 0 0 0 0 0 0 0 127 0" result="hardAlpha"/>
<feOffset dx="2"/>
<feGaussianBlur stdDeviation="2"/>
<feComposite in2="hardAlpha" operator="out"/>
<feColorMatrix type="matrix" values="0 0 0 0 0 0 0 0 0 0 0 0 0 0 0 0 0 0 0.25 0"/>
<feBlend mode="normal" in2="BackgroundImageFix" result="effect1_dropShadow_1_2"/>
<feBlend mode="normal" in="SourceGraphic" in2="effect1_dropShadow_1_2" result="shape"/>
</filter>
<filter id="filter1_d_1_2" x="28" y="143" width="122.351" height="122.351" filterUnits="userSpaceOnUse" color-interpolation-filters="sRGB">
<feFlood flood-opacity="0" result="BackgroundImageFix"/>
<feColorMatrix in="SourceAlpha" type="matrix" values="0 0 0 0 0 0 0 0 0 0 0 0 0 0 0 0 0 0 127 0" result="hardAlpha"/>
<feOffset dy="3"/>
<feGaussianBlur stdDeviation="2"/>
<feComposite in2="hardAlpha" operator="out"/>
<feColorMatrix type="matrix" values="0 0 0 0 0 0 0 0 0 0 0 0 0 0 0 0 0 0 0.25 0"/>
<feBlend mode="normal" in2="BackgroundImageFix" result="effect1_dropShadow_1_2"/>
<feBlend mode="normal" in="SourceGraphic" in2="effect1_dropShadow_1_2" result="shape"/>
</filter>
</defs>
</svg>
