<svg width="171" height="171" viewBox="0 0 171 171" fill="none" xmlns="http://www.w3.org/2000/svg">
<rect width="171" height="171" fill="#171717"/>
<g filter="url(#filter0_d_1_28)">
<path d="M26 34.6569C26 31.0932 30.3086 29.3086 32.8284 31.8284L139.172 138.172C141.691 140.691 139.907 145 136.343 145H30C27.7909 145 26 143.209 26 141V34.6569Z" fill="#FDFDFD"/>
</g>
<g filter="url(#filter1_d_1_28)">
<path d="M136.343 25C139.907 25 141.691 29.3086 139.172 31.8284L32.8284 138.172C30.3086 140.691 26 138.907 26 135.343L26 29C26 26.7909 27.7909 25 30 25L136.343 25Z" fill="#03F8AE"/>
</g>
<defs>
<filter id="filter0_d_1_28" x="24" y="26.6488" width="122.351" height="122.351" filterUnits="userSpaceOnUse" color-interpolation-filters="sRGB">
<feFlood flood-opacity="0" result="BackgroundImageFix"/>
<feColorMatrix in="SourceAlpha" type="matrix" values="0 0 0 0 0 0 0 0 0 0 0 0 0 0 0 0 0 0 127 0" result="hardAlpha"/>
<feOffset dx="2"/>
<feGaussianBlur stdDeviation="2"/>
<feComposite in2="hardAlpha" operator="out"/>
<feColorMatrix type="matrix" values="0 0 0 0 0 0 0 0 0 0 0 0 0 0 0 0 0 0 0.25 0"/>
<feBlend mode="normal" in2="BackgroundImageFix" result="effect1_dropShadow_1_28"/>
<feBlend mode="normal" in="SourceGraphic" in2="effect1_dropShadow_1_28" result="shape"/>
</filter>
<filter id="filter1_d_1_28" x="22" y="24" width="122.351" height="122.351" filterUnits="userSpaceOnUse" color-interpolation-filters="sRGB">
<feFlood flood-opacity="0" result="BackgroundImageFix"/>
<feColorMatrix in="SourceAlpha" type="matrix" values="0 0 0 0 0 0 0 0 0 0 0 0 0 0 0 0 0 0 127 0" result="hardAlpha"/>
<feOffset dy="3"/>
<feGaussianBlur stdDeviation="2"/>
<feComposite in2="hardAlpha" operator="out"/>
<feColorMatrix type="matrix" values="0 0 0 0 0 0 0 0 0 0 0 0 0 0 0 0 0 0 0.25 0"/>
<feBlend mode="normal" in2="BackgroundImageFix" result="effect1_dropShadow_1_28"/>
<feBlend mode="normal" in="SourceGraphic" in2="effect1_dropShadow_1_28" result="shape"/>
</filter>
</defs>
</svg>
